<mxfile host="Electron" agent="Mozilla/5.0 (Windows NT 10.0; Win64; x64) AppleWebKit/537.36 (KHTML, like Gecko) draw.io/26.2.15 Chrome/134.0.6998.205 Electron/35.2.1 Safari/537.36" version="26.2.15">
  <diagram name="페이지-1" id="a0oBLyYIjLIoy5MqJPrk">
    <mxGraphModel dx="823" dy="825" grid="1" gridSize="10" guides="1" tooltips="1" connect="1" arrows="1" fold="1" page="1" pageScale="1" pageWidth="1169" pageHeight="827" math="0" shadow="0">
      <root>
        <mxCell id="0" />
        <mxCell id="1" parent="0" />
        <mxCell id="VxcB3nCmHgnuW6zYoSPj-1" value="Artix-7" style="rounded=0;whiteSpace=wrap;html=1;fontSize=21;fontStyle=1;fillColor=#dae8fc;strokeColor=#6c8ebf;" vertex="1" parent="1">
          <mxGeometry x="80" y="140" width="120" height="130" as="geometry" />
        </mxCell>
        <mxCell id="VxcB3nCmHgnuW6zYoSPj-2" value="Artix-7" style="rounded=0;whiteSpace=wrap;html=1;fontSize=21;fontStyle=1;fillColor=#f8cecc;strokeColor=#b85450;" vertex="1" parent="1">
          <mxGeometry x="380" y="140" width="120" height="130" as="geometry" />
        </mxCell>
        <mxCell id="VxcB3nCmHgnuW6zYoSPj-4" value="" style="shape=flexArrow;endArrow=classic;startArrow=classic;html=1;rounded=0;exitX=1;exitY=0.5;exitDx=0;exitDy=0;width=74;startSize=9.776666666666666;endSize=9.776666666666666;fillColor=#d5e8d4;strokeColor=#82b366;" edge="1" parent="1" source="VxcB3nCmHgnuW6zYoSPj-1" target="VxcB3nCmHgnuW6zYoSPj-2">
          <mxGeometry width="100" height="100" relative="1" as="geometry">
            <mxPoint x="370" y="480" as="sourcePoint" />
            <mxPoint x="470" y="380" as="targetPoint" />
          </mxGeometry>
        </mxCell>
      </root>
    </mxGraphModel>
  </diagram>
</mxfile>
